<?xml version="1.0" encoding="UTF-8"?>
<svg id="Layer_1" data-name="Layer 1" xmlns="http://www.w3.org/2000/svg" viewBox="0 0 438.47 226.75">
  <defs>
    <style>
      .cls-1 {
        font-family: Antonio-Regular, Antonio;
        font-size: 13px;
      }

      .cls-1, .cls-2 {
        fill: #fff;
      }

      .cls-3 {
        fill: #0d73a9;
      }

      .cls-4 {
        letter-spacing: 0em;
      }

      .cls-2 {
        font-family: GAMECUBENDualSet, GAMECUBEN;
        font-size: 57px;
      }

      .cls-5 {
        fill: #0e90c4;
      }

      .cls-6 {
        fill: #0f91c5;
      }
    </style>
  </defs>
  <polygon class="cls-6" points="388.97 72.25 424.37 74.65 420.17 55.75 413.87 57.85 406.67 57.85 402.47 55.75 398.57 49.15 398.57 44.05 400.07 37.75 401.57 33.85 404.27 25.15 391.97 13.15 388.97 16.15 384.77 19.45 380.87 23.35 375.77 24.85 373.07 25.15 370.97 23.35 368.57 21.85 365.27 17.35 365.27 13.15 363.77 7.15 363.77 3.25 363.77 0 346.67 0 344.87 5.05 342.47 10.75 339.77 14.95 335.87 19.45 331.97 21.55 327.77 21.85 322.97 19.45 320.27 16.75 316.97 11.35 316.97 8.95 298.67 19.45 298.67 23.65 298.67 29.05 298.67 35.95 296.27 39.85 294.47 42.25 292.97 43.75 289.67 47.65 286.37 50.05 277.97 49.75 273.77 47.95 270.47 47.05 258.77 66.55 261.47 71.95 263.27 77.95 263.27 80.65 244.67 82.15 219.97 83.95 205.97 85.45 207.77 87.25 282.77 85.75 286.37 77.65 289.07 73.75 291.17 71.35 292.97 68.95 294.47 66.85 295.97 65.35 297.47 63.85 299.87 61.45 304.07 57.25 307.37 54.25 315.17 49.45 318.47 46.75 325.37 43.63 331.97 41.65 340.97 39.85 346.07 39.25 350.87 39.25 354.17 39.25 363.77 42.25 367.07 43.63 369.47 45.25 371.87 46.75 374.87 49.75 376.97 52.15 379.37 54.55 381.47 57.85 383.27 60.85 385.37 63.85 387.17 67.75 388.97 72.25"/>
  <polygon class="cls-5" points="387.77 77.35 385.3 78.82 376.67 83.95 368.27 90.85 364.67 95.65 363.47 101.35 363.47 104.95 364.67 112.75 368.57 118.75 372.17 121.45 375.62 125.65 376.97 129.55 377.27 134.95 377.57 139.15 376.97 143.35 375.62 149.05 371.87 159.55 363.47 175.15 350.87 190.75 339.47 203.35 325.97 213.55 313.07 220.75 299.27 222.85 291.17 222.85 288.17 222.85 296.27 225.25 304.37 226.75 313.97 226.75 331.07 224.05 339.47 220.75 353.87 212.35 369.77 199.75 390.47 176.35 399.17 162.25 408.17 145.15 410.87 137.65 412.37 134.35 414.77 132.25 416.57 130.75 419.27 129.25 422.27 127.75 424.37 126.85 428.27 124.45 431.57 122.05 433.97 119.65 436.37 115.75 438.47 107.05 438.47 101.05 435.47 96.25 433.67 92.65 431.57 89.95 430.07 87.25 427.97 84.55 426.47 84.25 423.17 84.85 420.47 85.45 419.27 87.25 419.57 93.25 419.57 98.35 419.27 101.65 418.67 103.45 415.67 104.95 410.87 104.95 405.17 104.95 399.47 104.05 396.77 102.85 393.77 101.35 390.77 99.55 388.37 98.05 387.77 96.25 387.17 92.35 387.77 87.25 387.77 84.25 387.77 77.35"/>
  <polygon class="cls-3" points="203.57 170.65 274.67 171.85 279.47 181.15 283.97 186.85 288.17 190.15 293.57 193.45 298.07 195.55 301.37 196.75 306.17 198.25 309.77 198.25 315.17 198.25 320.27 198.25 325.37 198.25 330.17 197.05 335.57 194.65 338.27 193.45 341.87 191.35 346.07 189.25 347.87 188.05 343.67 192.85 338.27 198.25 334.07 201.55 328.97 205.45 322.07 209.65 316.37 212.35 308.87 215.05 305.57 216.55 300.17 217.75 295.07 217.75 290.27 217.75 286.37 217.75 280.67 215.35 275.72 213.25 272.87 210.55 269.57 207.85 266.57 203.95 263.57 200.35 260.87 196.75 258.47 192.85 252.77 181.75 250.97 177.25 250.37 175.75 246.17 174.25 240.17 173.65 228.47 173.35 219.97 173.05 211.97 172.45 205.97 172.15 203.57 170.65"/>
  <rect class="cls-5" y="170.65" width="139.37" height="2.1"/>
  <text class="cls-2" transform="translate(3.58 146.95)"><tspan x="0" y="0">LYNX</tspan></text>
  <text class="cls-1" transform="translate(163.37 165.44)"><tspan x="0" y="0">TECHNICAL SERVICES L</tspan><tspan class="cls-4" x="97.75" y="0">L</tspan><tspan x="102.03" y="0">C</tspan></text>
</svg>