<?xml version="1.0" encoding="UTF-8"?>
<svg id="Layer_1" xmlns="http://www.w3.org/2000/svg" version="1.1" viewBox="0 0 1920 1080">
  <!-- Generator: Adobe Illustrator 29.5.1, SVG Export Plug-In . SVG Version: 2.1.0 Build 141)  -->
  <defs>
    <style>
      .st0 {
        font-family: Antonio-Regular, Antonio;
        font-size: 13px;
      }

      .st0, .st1 {
        fill: #fff;
      }

      .st2 {
        fill: #0d73a9;
      }

      .st1 {
        font-family: GAMECUBENDualSet, GAMECUBEN;
        font-size: 57px;
      }

      .st3 {
        fill: #0e90c4;
      }

      .st4 {
        fill: #0f91c5;
      }
    </style>
  </defs>
  <polygon class="st4" points="1129 498.27 1164.4 500.67 1160.2 481.77 1153.9 483.87 1146.7 483.87 1142.5 481.77 1138.6 475.17 1138.6 470.07 1140.1 463.77 1141.6 459.87 1144.3 451.17 1132 439.17 1129 442.17 1124.8 445.47 1120.9 449.37 1115.8 450.87 1113.1 451.17 1111 449.37 1108.6 447.87 1105.3 443.37 1105.3 439.17 1103.8 433.17 1103.8 429.27 1103.8 426.01 1086.7 426.01 1084.9 431.07 1082.5 436.77 1079.8 440.97 1075.9 445.47 1072 447.57 1067.8 447.87 1063 445.47 1060.3 442.77 1057 437.37 1057 434.97 1038.7 445.47 1038.7 449.67 1038.7 455.07 1038.7 461.97 1036.3 465.87 1034.5 468.27 1033 469.77 1029.7 473.67 1026.4 476.07 1018 475.77 1013.8 473.97 1010.5 473.07 998.8 492.57 1001.5 497.97 1003.3 503.97 1003.3 506.67 984.7 508.17 960 509.97 946 511.47 947.8 513.27 1022.8 511.77 1026.4 503.67 1029.1 499.77 1031.2 497.37 1033 494.97 1034.5 492.87 1036 491.37 1037.5 489.87 1039.9 487.47 1044.1 483.27 1047.4 480.27 1055.2 475.47 1058.5 472.77 1065.4 469.64 1072 467.67 1081 465.87 1086.1 465.27 1090.9 465.27 1094.2 465.27 1103.8 468.27 1107.1 469.64 1109.5 471.27 1111.9 472.77 1114.9 475.77 1117 478.17 1119.4 480.57 1121.5 483.87 1123.3 486.87 1125.4 489.87 1127.2 493.77 1129 498.27"/>
  <polygon class="st3" points="1127.8 503.37 1125.33 504.84 1116.7 509.97 1108.3 516.87 1104.7 521.67 1103.5 527.37 1103.5 530.97 1104.7 538.77 1108.6 544.77 1112.2 547.47 1115.65 551.67 1117 555.57 1117.3 560.97 1117.6 565.17 1117 569.37 1115.65 575.07 1111.9 585.57 1103.5 601.17 1090.9 616.77 1079.5 629.37 1066 639.57 1053.1 646.77 1039.3 648.87 1031.2 648.87 1028.2 648.87 1036.3 651.27 1044.4 652.77 1054 652.77 1071.1 650.07 1079.5 646.77 1093.9 638.37 1109.8 625.77 1130.5 602.37 1139.2 588.27 1148.2 571.17 1150.9 563.67 1152.4 560.37 1154.8 558.27 1156.6 556.77 1159.3 555.27 1162.3 553.77 1164.4 552.87 1168.3 550.47 1171.6 548.07 1174 545.67 1176.4 541.77 1178.5 533.07 1178.5 527.07 1175.5 522.27 1173.7 518.67 1171.6 515.97 1170.1 513.27 1168 510.57 1166.5 510.27 1163.2 510.87 1160.5 511.47 1159.3 513.27 1159.6 519.27 1159.6 524.37 1159.3 527.67 1158.7 529.47 1155.7 530.97 1150.9 530.97 1145.2 530.97 1139.5 530.07 1136.8 528.87 1133.8 527.37 1130.8 525.57 1128.4 524.07 1127.8 522.27 1127.2 518.37 1127.8 513.27 1127.8 510.27 1127.8 503.37"/>
  <polygon class="st2" points="943.6 596.67 1014.7 597.87 1019.5 607.17 1024 612.87 1028.2 616.17 1033.6 619.47 1038.1 621.57 1041.4 622.77 1046.2 624.27 1049.8 624.27 1055.2 624.27 1060.3 624.27 1065.4 624.27 1070.2 623.07 1075.6 620.67 1078.3 619.47 1081.9 617.37 1086.1 615.27 1087.9 614.07 1083.7 618.87 1078.3 624.27 1074.1 627.57 1069 631.47 1062.1 635.67 1056.4 638.37 1048.9 641.07 1045.6 642.57 1040.2 643.77 1035.1 643.77 1030.3 643.77 1026.4 643.77 1020.7 641.37 1015.75 639.27 1012.9 636.57 1009.6 633.87 1006.6 629.97 1003.6 626.37 1000.9 622.77 998.5 618.87 992.8 607.77 991 603.27 990.4 601.77 986.2 600.27 980.2 599.67 968.5 599.37 960 599.07 952 598.47 946 598.17 943.6 596.67"/>
  <rect class="st3" x="740.03" y="596.67" width="139.37" height="2.1"/>
  <text class="st1" transform="translate(743.61 572.97)"><tspan x="0" y="0">LYNX</tspan></text>
  <text class="st0" transform="translate(903.4 591.46)"><tspan x="0" y="0">TECHNICAL SERVICES LLC</tspan></text>
</svg>